<?xml version="1.0" standalone="no"?>
<!DOCTYPE svg PUBLIC "-//W3C//DTD SVG 20010904//EN"
 "http://www.w3.org/TR/2001/REC-SVG-20010904/DTD/svg10.dtd">
<svg version="1.0" xmlns="http://www.w3.org/2000/svg"
 width="261.000000pt" height="261.000000pt" viewBox="0 0 261.000000 261.000000"
 preserveAspectRatio="xMidYMid meet">
<metadata>
Created by potrace 1.14, written by Peter Selinger 2001-2017
</metadata>
<g transform="translate(0.000000,261.000000) scale(0.100000,-0.100000)"
fill="#000000" stroke="none">
<path d="M864 2428 c-47 -44 -64 -95 -52 -161 11 -62 32 -97 92 -157 25 -25
45 -51 46 -57 0 -7 4 -13 10 -13 11 0 1 -32 -14 -42 -7 -5 -7 -10 -1 -17 16
-15 74 15 85 44 20 52 -2 111 -78 214 -48 65 -59 125 -36 199 9 32 -10 28 -52
-10z"/>
<path d="M1192 2434 c-44 -35 -64 -77 -64 -134 1 -64 31 -122 102 -198 60 -65
65 -82 31 -109 -14 -10 -11 -12 15 -13 69 0 98 64 65 145 -9 22 -36 68 -60
102 -55 76 -66 127 -46 206 9 34 -1 34 -43 1z"/>
<path d="M1495 2441 c-49 -29 -69 -68 -72 -136 -2 -72 19 -117 87 -189 63 -68
74 -90 55 -110 -21 -21 -19 -26 10 -26 14 0 37 11 50 25 44 43 30 103 -48 217
-48 69 -65 110 -61 148 3 33 11 68 19 80 9 15 -7 12 -40 -9z"/>
<path d="M1152 1727 c-38 -22 -49 -64 -28 -105 8 -16 23 -32 31 -36 9 -3 79
-6 156 -6 140 0 140 0 165 27 21 22 25 35 20 61 -4 29 -35 69 -55 73 -3 1 -63
2 -132 3 -105 1 -131 -2 -157 -17z"/>
<path d="M56 1321 c-3 -4 -5 -33 -4 -63 l2 -56 155 -1 c85 0 157 -5 160 -10 3
-5 6 -175 5 -378 0 -373 4 -421 39 -489 24 -46 80 -98 134 -125 l48 -24 685
-2 c587 -1 693 1 740 14 92 25 146 72 188 163 l26 55 0 398 1 397 30 1 c16 0
89 1 160 2 l130 2 1 62 1 61 -1248 1 c-687 0 -1251 -3 -1253 -8z"/>
</g>
</svg>
